<?xml version="1.0" encoding="iso-8859-1"?>
<!-- Generator: Adobe Illustrator 19.0.0, SVG Export Plug-In . SVG Version: 6.00 Build 0)  -->
<svg version="1.1" id="Layer_1" xmlns="http://www.w3.org/2000/svg" xmlns:xlink="http://www.w3.org/1999/xlink" x="0px" y="0px"
	 viewBox="0 0 393.309 393.309" style="enable-background:new 0 0 393.309 393.309;" xml:space="preserve">
<circle style="fill:#6EB1E1;" cx="196.655" cy="196.655" r="196.655"/>
<polygon style="fill:#F0582F;" points="284.38,365.834 108.929,365.834 45.964,103.822 347.345,103.822 "/>
<polygon style="fill:#FCFCFD;" points="267.442,365.834 125.867,365.834 74.925,103.822 318.384,103.822 "/>
<polygon style="fill:#F0582F;" points="241.455,365.834 151.855,365.834 119.596,103.822 273.713,103.822 "/>
<polygon style="fill:#FFFFFC;" points="210.812,365.834 182.497,365.834 172.412,103.822 220.897,103.822 "/>
<g>
	<circle style="fill:#F8F1A0;" cx="101.689" cy="62.513" r="13.382"/>
	<circle style="fill:#F8F1A0;" cx="189.414" cy="65.552" r="13.382"/>
	<circle style="fill:#F8F1A0;" cx="135.305" cy="83.394" r="13.382"/>
	<circle style="fill:#F8F1A0;" cx="202.667" cy="92.251" r="13.382"/>
	<circle style="fill:#F8F1A0;" cx="289.875" cy="75.83" r="13.382"/>
</g>
<g>
	<circle style="fill:#E2E187;" cx="286.578" cy="96.711" r="13.382"/>
	<circle style="fill:#E2E187;" cx="273.713" cy="78.869" r="13.382"/>
	<circle style="fill:#E2E187;" cx="217.923" cy="94.578" r="13.382"/>
	<circle style="fill:#E2E187;" cx="194.198" cy="107.96" r="13.382"/>
	<circle style="fill:#E2E187;" cx="176.032" cy="56.63" r="13.382"/>
	<circle style="fill:#E2E187;" cx="82.618" cy="67.814" r="13.382"/>
	<circle style="fill:#E2E187;" cx="303.192" cy="81.196" r="13.382"/>
	<circle style="fill:#E2E187;" cx="331.701" cy="85.721" r="13.382"/>
	<circle style="fill:#E2E187;" cx="236.477" cy="62.513" r="13.382"/>
	<circle style="fill:#E2E187;" cx="141.77" cy="52.17" r="13.382"/>
	<circle style="fill:#E2E187;" cx="168.469" cy="89.147" r="13.382"/>
	<circle style="fill:#E2E187;" cx="148.687" cy="96.711" r="13.382"/>
	<circle style="fill:#E2E187;" cx="109.253" cy="99.038" r="13.382"/>
	<circle style="fill:#E2E187;" cx="61.608" cy="96.711" r="13.382"/>
	<circle style="fill:#E2E187;" cx="121.988" cy="65.552" r="13.382"/>
	<circle style="fill:#E2E187;" cx="155.152" cy="78.869" r="13.382"/>
	<circle style="fill:#E2E187;" cx="207.58" cy="75.83" r="13.382"/>
	<circle style="fill:#E2E187;" cx="183.984" cy="85.721" r="13.382"/>
	<circle style="fill:#E2E187;" cx="236.477" cy="81.196" r="13.382"/>
	<circle style="fill:#E2E187;" cx="249.794" cy="99.038" r="13.382"/>
	<circle style="fill:#E2E187;" cx="82.618" cy="89.147" r="13.382"/>
</g>
<g>
	<circle style="fill:#F8F1A0;" cx="263.176" cy="92.251" r="13.382"/>
	<circle style="fill:#F8F1A0;" cx="172.412" cy="105.632" r="13.382"/>
	<circle style="fill:#F8F1A0;" cx="88.307" cy="102.529" r="13.382"/>
	<circle style="fill:#F8F1A0;" cx="64.582" cy="83.394" r="13.382"/>
	<circle style="fill:#F8F1A0;" cx="223.095" cy="70.012" r="13.382"/>
	<circle style="fill:#F8F1A0;" cx="170.602" cy="78.869" r="13.382"/>
	<circle style="fill:#F8F1A0;" cx="128.453" cy="99.038" r="13.382"/>
	<circle style="fill:#F8F1A0;" cx="305.002" cy="92.251" r="13.382"/>
	<circle style="fill:#F8F1A0;" cx="325.947" cy="96.711" r="13.382"/>
	<circle style="fill:#F8F1A0;" cx="318.384" cy="78.869" r="13.382"/>
	<circle style="fill:#F8F1A0;" cx="231.24" cy="96.711" r="13.382"/>
	<circle style="fill:#F8F1A0;" cx="150.756" cy="59.022" r="13.382"/>
	<circle style="fill:#F8F1A0;" cx="109.253" cy="83.394" r="13.382"/>
	<circle style="fill:#F8F1A0;" cx="82.618" cy="75.83" r="13.382"/>
	<circle style="fill:#F8F1A0;" cx="254.707" cy="75.83" r="13.382"/>
</g>
<ellipse style="fill:#F0582F;" cx="193.81" cy="230.012" rx="97.81" ry="76.283"/>
<ellipse style="fill:#FCFCFD;" cx="193.81" cy="230.012" rx="79.257" ry="61.737"/>
<g>
</g>
<g>
</g>
<g>
</g>
<g>
</g>
<g>
</g>
<g>
</g>
<g>
</g>
<g>
</g>
<g>
</g>
<g>
</g>
<g>
</g>
<g>
</g>
<g>
</g>
<g>
</g>
<g>
</g>
</svg>
