<?xml version="1.0" encoding="iso-8859-1"?>
<!-- Generator: Adobe Illustrator 19.0.0, SVG Export Plug-In . SVG Version: 6.00 Build 0)  -->
<svg version="1.1" id="Layer_1" xmlns="http://www.w3.org/2000/svg" xmlns:xlink="http://www.w3.org/1999/xlink" x="0px" y="0px"
	 viewBox="0 0 512 512" style="enable-background:new 0 0 512 512;" xml:space="preserve">
<path style="fill:#EEEEEE;" d="M24.003,54.424C10.747,54.424,0,65.17,0,78.427v355.145c0,13.257,10.747,24.003,24.003,24.003
	h230.498V54.424H24.003z"/>
<path style="fill:#D8D8D8;" d="M487.997,54.424H254.502v403.153h233.495c13.257,0,24.003-10.747,24.003-24.003V78.427
	C512,65.17,501.253,54.424,487.997,54.424z"/>
<circle style="fill:#898989;" cx="256" cy="414.459" r="15.99"/>
<rect x="49.58" y="104.009" style="fill:#0089D3;" width="204.915" height="267.327"/>
<rect x="254.506" y="104.009" style="fill:#0072C5;" width="207.914" height="267.327"/>
<polygon style="fill:#FFE074;" points="167.885,244.938 211.843,244.938 211.843,323.548 254.502,323.548 254.502,151.799 "/>
<polygon style="fill:#FFBE00;" points="254.502,151.799 254.502,323.548 297.161,323.548 297.161,244.938 341.119,244.938 "/>
<g>
</g>
<g>
</g>
<g>
</g>
<g>
</g>
<g>
</g>
<g>
</g>
<g>
</g>
<g>
</g>
<g>
</g>
<g>
</g>
<g>
</g>
<g>
</g>
<g>
</g>
<g>
</g>
<g>
</g>
</svg>
