<?xml version="1.0" encoding="iso-8859-1"?>
<!-- Generator: Adobe Illustrator 19.0.0, SVG Export Plug-In . SVG Version: 6.00 Build 0)  -->
<svg version="1.1" id="Layer_1" xmlns="http://www.w3.org/2000/svg" xmlns:xlink="http://www.w3.org/1999/xlink" x="0px" y="0px"
	 viewBox="0 0 512 512" style="enable-background:new 0 0 512 512;" xml:space="preserve">
<path style="fill:#885F3E;" d="M483.776,223.816H464.58c-10.529,0-19.065-8.536-19.065-19.065s8.536-19.065,19.065-19.065h19.196
	c10.529,0,19.065,8.536,19.065,19.065S494.305,223.816,483.776,223.816z"/>
<path style="fill:#A67C52;" d="M47.42,223.816H28.224c-10.529,0-19.065-8.536-19.065-19.065s8.536-19.065,19.065-19.065H47.42
	c10.529,0,19.065,8.536,19.065,19.065S57.949,223.816,47.42,223.816z"/>
<path style="fill:#F79D1E;" d="M255.999,512L255.999,512c-116.267,0-210.52-94.252-210.52-210.519V90.85
	C45.48,40.675,86.155,0,136.33,0h239.339c50.176,0,90.85,40.675,90.85,90.85v210.631C466.52,417.748,372.266,512,255.999,512z"/>
<path style="fill:#FBB03B;" d="M255.999,512L255.999,512c-116.267,0-210.52-94.252-210.52-210.519V90.85
	C45.48,40.675,86.155,0,136.33,0h119.608L255.999,512z"/>
<path style="fill:#0E4151;" d="M295.218,172.979c-3.241,0-6.524-0.826-9.531-2.567c-9.113-5.273-12.226-16.937-6.952-26.05
	c12.307-21.265,35.202-34.475,59.751-34.475c24.543,0,47.434,13.204,59.743,34.46c5.276,9.112,2.167,20.775-6.946,26.051
	c-9.112,5.276-20.775,2.166-26.051-6.946c-5.514-9.522-15.761-15.437-26.745-15.437c-10.986,0-21.236,5.918-26.749,15.444
	C308.202,169.567,301.801,172.979,295.218,172.979z"/>
<path style="fill:#144F66;" d="M295.218,172.979c-3.241,0-6.524-0.826-9.531-2.567c-9.113-5.273-12.226-16.937-6.952-26.05
	c12.307-21.265,35.202-34.475,59.751-34.475v38.129c-10.986,0-21.236,5.918-26.749,15.444
	C308.202,169.567,301.801,172.979,295.218,172.979z"/>
<path style="fill:#39B7B6;" d="M257.353,411.017h-2.706c-64.022,0-116.108-52.086-116.108-116.108
	c0-10.529,8.536-19.065,19.065-19.065c10.529,0,19.065,8.536,19.065,19.065c0,42.997,34.98,77.979,77.979,77.979h2.706
	c42.997,0,77.979-34.981,77.979-77.979c0-10.529,8.536-19.065,19.065-19.065s19.065,8.536,19.065,19.065
	C373.46,358.931,321.375,411.017,257.353,411.017z"/>
<path style="fill:#66CBC4;" d="M255.999,411.017h-1.352c-64.022,0-116.108-52.086-116.108-116.108
	c0-10.529,8.536-19.065,19.065-19.065c10.529,0,19.065,8.536,19.065,19.065c0,42.997,34.98,77.979,77.979,77.979h1.352V411.017z"/>
<path style="fill:#0E4151;" d="M130.251,172.979c-3.241,0-6.524-0.826-9.531-2.567c-9.113-5.273-12.226-16.937-6.952-26.05
	c12.307-21.265,35.202-34.475,59.751-34.475c24.543,0,47.434,13.204,59.743,34.46c5.276,9.112,2.167,20.775-6.946,26.051
	c-9.112,5.276-20.775,2.166-26.051-6.946c-5.514-9.522-15.761-15.437-26.745-15.437c-10.986,0-21.236,5.918-26.749,15.444
	C143.237,169.567,136.833,172.979,130.251,172.979z"/>
<path style="fill:#144F66;" d="M130.251,172.979c-3.241,0-6.524-0.826-9.531-2.567c-9.113-5.273-12.226-16.937-6.952-26.05
	c12.307-21.265,35.202-34.475,59.751-34.475v38.129c-10.986,0-21.236,5.918-26.749,15.444
	C143.237,169.567,136.833,172.979,130.251,172.979z"/>
<g>
</g>
<g>
</g>
<g>
</g>
<g>
</g>
<g>
</g>
<g>
</g>
<g>
</g>
<g>
</g>
<g>
</g>
<g>
</g>
<g>
</g>
<g>
</g>
<g>
</g>
<g>
</g>
<g>
</g>
</svg>
