<?xml version="1.0" encoding="iso-8859-1"?>
<!-- Generator: Adobe Illustrator 19.0.0, SVG Export Plug-In . SVG Version: 6.00 Build 0)  -->
<svg version="1.1" id="Layer_1" xmlns="http://www.w3.org/2000/svg" xmlns:xlink="http://www.w3.org/1999/xlink" x="0px" y="0px"
	 viewBox="0 0 504.32 504.32" style="enable-background:new 0 0 504.32 504.32;" xml:space="preserve">
<g transform="translate(1 1)">
	<g>
		<path style="fill:#FFE079;" d="M429.933,123.16c51.2,0,68.267,8.533,68.267,51.2c0,119.467-68.267,324.267-179.2,324.267
			c-46.08,0-89.6-38.4-116.907-89.6c0,0-5.973-13.653-8.533-29.867v-0.853c76.8-9.387,132.267-117.76,155.307-221.013h0.853
			C366.787,138.52,411.16,123.16,429.933,123.16"/>
		<path style="fill:#FFE079;" d="M361.667,54.893c0,30.72-4.267,66.56-12.8,103.253C324.973,260.547,270.36,368.92,193.56,379.16
			c-3.413,0.853-6.827,0.853-11.093,0.853c-110.933,0-179.2-204.8-179.2-324.267c0-42.667,17.067-51.2,68.267-51.2
			c34.133,0,51.2,25.6,110.933,25.6s76.8-25.6,110.933-25.6C344.6,3.693,361.667,12.227,361.667,54.893"/>
	</g>
	<path style="fill:#AAB1BA;" d="M284.867,119.747c1.707,9.387-11.947,19.627-30.72,23.04c-18.773,3.413-34.987-1.707-36.693-11.093
		c-1.707-9.387,11.947-19.627,30.72-23.04C266.947,105.24,283.16,110.36,284.867,119.747z M420.547,239.213
		c1.707,9.387-11.947,19.627-30.72,23.04c-18.773,3.413-34.987-1.707-36.693-11.093c-1.707-9.387,11.947-19.627,30.72-23.04
		S418.84,229.827,420.547,239.213z M116.76,108.653c18.773,3.413,32.427,13.653,30.72,23.04
		c-1.707,9.387-17.92,14.507-36.693,11.093c-18.773-3.413-32.427-13.653-30.72-23.04C81.773,110.36,97.987,105.24,116.76,108.653z"
		/>
</g>
<path style="fill:#51565F;" d="M320,503.893c-44.373,0-89.6-34.133-121.173-91.307c-0.853-1.707,0-4.267,1.707-5.973
	c1.707-0.853,4.267,0,5.973,1.707c29.867,54.613,72.533,87.04,113.493,87.04c108.373,0,174.933-207.36,174.933-320
	c0-38.4-11.947-46.933-64-46.933c-13.653,0-22.187,3.413-34.133,8.533c-3.413,1.707-6.827,3.413-11.093,4.267
	c-2.56,0.853-4.267,0-5.12-2.56c-0.853-2.56,0-4.267,2.56-5.12c4.267-1.707,7.68-3.413,11.093-4.267
	c11.947-5.12,22.187-9.387,37.547-9.387c50.347,0,72.533,7.68,72.533,55.467C503.467,287.147,438.613,503.893,320,503.893z
	 M260.267,401.493c-0.853,0-1.707,0-1.707-0.853c-1.707-0.853-2.56-3.413-1.707-5.973c0.853-1.707,18.773-36.693,63.147-36.693
	s63.147,34.987,63.147,36.693c0.853,1.707,0,4.267-1.707,5.973c-1.707,0.853-4.267,0-5.973-1.707
	c-0.853-1.707-16.213-31.573-56.32-31.573c-39.253,0-55.467,31.573-56.32,31.573C263.68,400.64,261.973,401.493,260.267,401.493z
	 M183.467,384.427C64.853,384.427,0,167.68,0,55.893C0,8.107,22.187,0.427,72.533,0.427c15.36,0,28.16,5.12,40.96,10.24
	c17.067,6.827,36.693,15.36,69.973,15.36s52.907-7.68,69.973-15.36c12.8-5.12,25.6-10.24,40.96-10.24
	c50.347,0,72.533,7.68,72.533,55.467C366.933,167.68,302.08,384.427,183.467,384.427z M72.533,8.96c-52.053,0-64,8.533-64,46.933
	c0,112.64,66.56,320,174.933,320s174.933-207.36,174.933-320c0-38.4-11.947-46.933-64-46.933c-13.653,0-24.747,4.267-37.547,10.24
	c-17.92,7.68-38.4,15.36-73.387,15.36S128,26.027,110.08,19.2C97.28,13.227,86.187,8.96,72.533,8.96z M183.467,282.027
	c-44.373,0-63.147-34.987-63.147-36.693c-0.853-1.707,0-4.267,1.707-5.973c1.707-0.853,4.267,0,5.973,1.707
	c0.853,1.707,16.213,31.573,56.32,31.573c39.253,0,55.467-31.573,56.32-31.573c0.853-1.707,3.413-2.56,5.973-1.707
	c1.707,0.853,2.56,3.413,1.707,5.973C246.613,247.04,227.84,282.027,183.467,282.027z M378.88,268.373
	c-15.36,0-27.307-5.973-29.013-15.36c-0.853-5.973,2.56-12.8,9.387-17.92c5.973-4.267,15.36-8.533,24.747-10.24
	c21.333-3.413,39.253,2.56,41.813,14.507c2.56,11.947-12.8,23.893-34.133,27.307C387.413,267.52,383.147,268.373,378.88,268.373z
	 M395.947,232.533c-3.413,0-6.827,0-10.24,0.853l0,0c-8.533,1.707-16.213,4.267-21.333,8.533c-4.267,3.413-6.827,6.827-5.973,9.387
	c0.853,5.973,14.507,10.24,31.573,7.68c17.067-2.56,28.16-11.947,27.307-17.92C416.427,235.947,407.893,232.533,395.947,232.533z
	 M243.2,148.907c-15.36,0-27.307-5.973-29.013-15.36c-0.853-5.973,2.56-12.8,9.387-17.92c5.973-4.267,15.36-8.533,24.747-10.24l0,0
	c21.333-3.413,39.253,2.56,41.813,14.507c1.707,11.947-12.8,23.893-34.133,27.307C251.733,148.053,247.467,148.907,243.2,148.907z
	 M260.267,113.067c-3.413,0-6.827,0-10.24,0.853l0,0c-8.533,1.707-16.213,4.267-21.333,8.533c-4.267,3.413-6.827,6.827-5.973,9.387
	c0.853,5.973,14.507,10.24,31.573,7.68c17.067-2.56,28.16-11.947,27.307-17.92C280.747,116.48,272.213,113.067,260.267,113.067z
	 M123.733,148.907c-4.267,0-7.68,0-11.947-0.853c-21.333-3.413-35.84-15.36-34.133-27.307c0.853-5.973,5.973-11.093,14.507-13.653
	c7.68-2.56,17.067-2.56,26.453-0.853l0,0c21.333,3.413,35.84,15.36,34.133,27.307C151.04,142.933,139.093,148.907,123.733,148.907z
	 M106.667,113.067c-4.267,0-8.533,0.853-11.947,1.707c-5.12,1.707-8.533,4.267-8.533,6.827c-0.853,5.973,10.24,14.507,27.307,17.92
	c17.067,2.56,30.72-1.707,31.573-7.68c0.853-5.973-10.24-14.507-27.307-17.92l0,0C113.493,113.067,110.08,113.067,106.667,113.067z"
	/>
<g>
</g>
<g>
</g>
<g>
</g>
<g>
</g>
<g>
</g>
<g>
</g>
<g>
</g>
<g>
</g>
<g>
</g>
<g>
</g>
<g>
</g>
<g>
</g>
<g>
</g>
<g>
</g>
<g>
</g>
</svg>
