<?xml version="1.0" encoding="iso-8859-1"?>
<!-- Generator: Adobe Illustrator 19.0.0, SVG Export Plug-In . SVG Version: 6.00 Build 0)  -->
<svg version="1.1" id="Layer_1" xmlns="http://www.w3.org/2000/svg" xmlns:xlink="http://www.w3.org/1999/xlink" x="0px" y="0px"
	 viewBox="0 0 480.36 480.36" style="enable-background:new 0 0 480.36 480.36;" xml:space="preserve">
<g>
	
		<rect x="10.814" y="337.287" transform="matrix(-0.7071 0.7071 -0.7071 -0.7071 450.2949 552.0559)" style="fill:#B97739;" width="199.998" height="63.999"/>
	<path style="fill:#B97739;" d="M17.469,417.36l45.28,45.28c-12.48,12.48-32.8,12.48-45.28,0
		C4.989,450.16,4.989,429.84,17.469,417.36z"/>
</g>
<g>
	
		<rect x="142.165" y="289.927" transform="matrix(-0.7071 0.7071 -0.7071 -0.7071 497.6409 437.7236)" style="fill:#F79E4C;" width="32" height="63.999"/>
	
		<rect x="35.407" y="396.666" transform="matrix(-0.7071 0.7071 -0.7071 -0.7071 390.87 695.4275)" style="fill:#F79E4C;" width="32" height="63.999"/>
</g>
<path d="M209.845,315.544l-45.28-45.28c-3.128-3.128-8.184-4.28-11.312-1.152L141.213,280h-0.008l-21.096,24.952v0.008L35.229,392
	h-0.392l-22.832,21.168c-15.608,15.6-15.704,40.256-0.096,55.856c7.8,7.8,18,11.336,28.248,11.336s19-4.088,26.8-11.888
	l21.152-22.816v-0.776l87.04-84.88h0.008l24.952-21.096v-0.008l10.888-12.04C214.125,323.728,212.965,318.664,209.845,315.544z
	 M192.877,321.2l-0.736,0.736l-33.968-33.968l0.736-0.736L192.877,321.2z M169.501,344.576l-33.968-33.968l11.328-11.328
	l33.968,33.968L169.501,344.576z M85.389,428.688L51.421,394.72l72.8-72.792l33.968,33.968L85.389,428.688z M62.749,451.328
	L28.781,417.36l11.328-11.328L74.077,440L62.749,451.328z M23.125,456.984c-7.384-7.384-8.944-18.416-4.688-27.344l32.032,32.032
	C41.541,465.936,30.501,464.368,23.125,456.984z"/>
<circle style="fill:#F79E4C;" cx="296.109" cy="184" r="176"/>
<path d="M296.109,368c-101.456,0-184-82.544-184-184s82.544-184,184-184s184,82.544,184,184S397.565,368,296.109,368z M296.109,16
	c-92.64,0-168,75.36-168,168s75.36,168,168,168s168-75.36,168-168S388.749,16,296.109,16z"/>
<circle style="fill:#FDECDB;" cx="296.109" cy="184" r="128"/>
<path d="M296.109,320c-74.992,0-136-61.008-136-136s61.008-136,136-136s136,61.008,136,136S371.101,320,296.109,320z M296.109,64
	c-66.168,0-120,53.832-120,120s53.832,120,120,120s120-53.832,120-120S362.277,64,296.109,64z"/>
<path style="fill:#DF5349;" d="M362.749,140.88c16.56,15.6,16.8,41.6,0.88,57.52l-48.24,48.8c-9.92,10.08-26.16,10.08-36.16,0.16
	l-48-48c-15.92-16-15.6-42,0.88-57.52c16-15.04,41.52-13.52,56.96,2l7.92,7.92l8.8-8.8
	C321.309,127.44,346.749,125.84,362.749,140.88z"/>
<path d="M368.229,135.048c-18.72-17.592-49.264-16.584-68.096,2.256l-3.144,3.144l-2.248-2.248
	c-18.768-18.864-49.312-19.84-68.112-2.184l0,0c-9.528,8.976-14.888,21.12-15.104,34.2c-0.208,13.12,4.776,25.48,14.056,34.8
	l48.024,48.632c6.328,6.288,14.72,10.352,23.648,10.352c0.072,0,0.144,0,0.208,0c8.968,0,17.352-4.2,23.624-10.568l48.2-49.072
	c9.28-9.272,14.28-21.752,14.08-34.864C383.173,156.4,377.797,144.064,368.229,135.048z M357.941,192.776l-48.248,48.816
	c-3.264,3.328-7.648,5.168-12.32,5.192c-5.048,0.032-9.16-1.784-12.48-5.08l-47.984-47.992c-6.192-6.224-9.528-14.48-9.384-23.24
	c0.144-8.72,3.72-16.824,10.072-22.808c12.528-11.776,33.08-10.976,45.824,1.832l1.96,1.96l-13.352,17.328
	c-2.696,3.504-2.048,8.52,1.456,11.216c1.456,1.12,3.168,1.664,4.88,1.664c2.392,0,4.768-1.072,6.336-3.12l12.44-16.152
	l13.176,16.296c2.776,3.432,7.816,3.976,11.248,1.184c3.432-2.776,3.968-7.816,1.184-11.248l-14.008-17.32l2.704-2.704
	c12.784-12.784,33.336-13.648,45.824-1.912c6.384,6.016,9.976,14.144,10.104,22.88C367.501,178.328,364.157,186.552,357.941,192.776
	z"/>
<g>
</g>
<g>
</g>
<g>
</g>
<g>
</g>
<g>
</g>
<g>
</g>
<g>
</g>
<g>
</g>
<g>
</g>
<g>
</g>
<g>
</g>
<g>
</g>
<g>
</g>
<g>
</g>
<g>
</g>
</svg>
